<?xml version="1.0" encoding="utf-8"?>
<!DOCTYPE svg PUBLIC "-//W3C//DTD SVG 1.1//EN" "http://www.w3.org/Graphics/SVG/1.1/DTD/svg11.dtd">
<svg style="width:308px;height:308px;" version="1.1" id="图形" xmlns="http://www.w3.org/2000/svg" xmlns:xlink="http://www.w3.org/1999/xlink" x="0px" y="0px" width="1024px" height="1024px" viewBox="0 0 1024 1024" enable-background="new 0 0 1024 1024" xml:space="preserve">
  <path class="svgpath" data-index="path_0" fill="#56abe4" d="M546.101167 700.299597c-54.987359 0-110.016673-20.946055-151.857617-62.791092-8.618285-8.618285-8.618285-22.575158 0-31.19242 8.618285-8.622378 22.582321-8.622378 31.200606 0 66.534346 66.533322 174.823678 66.533322 241.359047 0l170.344666-170.392762c66.535369-66.535369 66.535369-174.782745 0-241.316068-66.491367-66.49239-174.781722-66.536392-241.36007 0l-85.192288 85.150332c-8.618285 8.618285-22.582321 8.618285-31.201629 0-8.618285-8.618285-8.618285-22.581298 0-31.199583l85.194334-85.150332c83.770915-83.770915 219.987297-83.770915 303.758212 0 83.731006 83.727936 83.731006 219.98832 0 303.718303L698.001763 637.511575C656.118863 679.353542 601.087503 700.299597 546.101167 700.299597L546.101167 700.299597zM307.627844 938.771897c-54.987359 0-110.017696-20.939915-151.857617-62.783928-40.596604-40.594557-62.916958-94.506421-62.916958-151.900595 0-57.357336 22.320355-111.310132 62.916958-151.862733l170.344666-170.343643c40.548508-40.59251 94.500281-62.911842 151.85864-62.911842 57.399291 0 111.307062 22.320355 151.899572 62.911842 8.618285 8.618285 8.618285 22.581298 0 31.199583s-22.580275 8.618285-31.198559 0c-64.464197-64.464197-176.894849-64.464197-241.359047 0L186.96981 603.425246c-32.234145 32.234145-49.990554 75.068719-49.990554 120.662127 0 45.587268 17.756409 88.467891 49.990554 120.702036 66.534346 66.533322 174.823678 66.533322 241.36007 0l85.149309-85.194334c8.618285-8.618285 22.580275-8.618285 31.198559 0s8.618285 22.578228 0 31.196513l-85.150332 85.196381C417.641447 917.831982 362.61418 938.771897 307.627844 938.771897L307.627844 938.771897zM307.627844 938.771897" />

</svg>
